<?xml version="1.0" encoding="utf-8"?>
<!-- Generator: Adobe Illustrator 25.2.0, SVG Export Plug-In . SVG Version: 6.00 Build 0)  -->
<svg version="1.1" id="Layer_1" xmlns="http://www.w3.org/2000/svg" xmlns:xlink="http://www.w3.org/1999/xlink" x="0px" y="0px"
	 viewBox="0 0 1500 1500" style="enable-background:new 0 0 1500 1500;" xml:space="preserve">
<style type="text/css">
	.st0{fill:url(#SVGID_1_);}
	.st1{fill:url(#SVGID_2_);}
	.st2{fill:url(#SVGID_3_);}
	.st3{fill:url(#SVGID_4_);}
	.st4{fill:url(#SVGID_5_);}
	.st5{fill:url(#SVGID_6_);}
	.st6{fill:url(#SVGID_7_);}
	.st7{fill:url(#SVGID_8_);}
</style>
<g>
	<linearGradient id="SVGID_1_" gradientUnits="userSpaceOnUse" x1="615.6377" y1="92.6936" x2="1435.766" y2="912.8218">
		<stop  offset="0" style="stop-color:#702FFF"/>
		<stop  offset="1" style="stop-color:#000000"/>
	</linearGradient>
	<path class="st0" d="M892.93,526.92c0.9,0.88,1.78,1.83,2.59,2.8c29,2.07,49.99,17.61,62.44,46.26h0.07
		c4.21,0,10.46,0.55,16.38,3.11c16.07,6.94,28.33,18.4,36.6,34.16H1207v-86.33H892.93z"/>
	<linearGradient id="SVGID_2_" gradientUnits="userSpaceOnUse" x1="581.2905" y1="239.9936" x2="1401.4188" y2="1060.1218">
		<stop  offset="0" style="stop-color:#702FFF"/>
		<stop  offset="0.7153" style="stop-color:#35225C"/>
		<stop  offset="1" style="stop-color:#000000"/>
	</linearGradient>
	<path class="st1" d="M1156.89,794.54v-84.98h-118.85c2,7.04,3.33,14.4,3.95,22.08c1.9,23.2-2.21,44.26-12.19,62.89H1156.89z"/>
	<linearGradient id="SVGID_3_" gradientUnits="userSpaceOnUse" x1="420.9592" y1="313.0432" x2="1241.0875" y2="1133.1714">
		<stop  offset="0" style="stop-color:#702FFF"/>
		<stop  offset="1" style="stop-color:#000000"/>
	</linearGradient>
	<path class="st2" d="M975.65,907.44c-3.4,2.21-7.08,4.06-11.03,5.56c-3.49,15.31-10.67,28.07-21.37,37.94
		c-12.62,11.65-26.77,17.57-42.02,17.57c-5.44,0-11.05-0.76-16.73-2.28c-2,4.25-4.59,7.94-7.61,10.96H1207v-86.31H994.48
		C989.22,897.15,982.95,902.66,975.65,907.44z"/>
	<linearGradient id="SVGID_4_" gradientUnits="userSpaceOnUse" x1="350.1972" y1="471.0869" x2="1170.3254" y2="1291.2151">
		<stop  offset="0" style="stop-color:#702FFF"/>
		<stop  offset="1" style="stop-color:#000000"/>
	</linearGradient>
	<path class="st3" d="M524.74,579.09c5.92-2.57,12.17-3.11,16.38-3.11h0.07c12.46-28.64,33.44-44.19,62.44-46.26
		c0.81-0.97,1.69-1.93,2.59-2.8H292.16v86.33h195.98C496.41,597.49,508.67,586.03,524.74,579.09z"/>
	<linearGradient id="SVGID_5_" gradientUnits="userSpaceOnUse" x1="172.5675" y1="522.9282" x2="992.6957" y2="1343.0565">
		<stop  offset="0" style="stop-color:#702FFF"/>
		<stop  offset="1" style="stop-color:#000000"/>
	</linearGradient>
	<path class="st4" d="M461.11,709.56H342.26v84.98h127.1c-9.98-18.64-14.1-39.7-12.19-62.89
		C457.78,723.97,459.12,716.6,461.11,709.56z"/>
	<linearGradient id="SVGID_6_" gradientUnits="userSpaceOnUse" x1="43.6773" y1="561.9696" x2="863.8055" y2="1382.0978">
		<stop  offset="0" style="stop-color:#702FFF"/>
		<stop  offset="1" style="stop-color:#000000"/>
	</linearGradient>
	<path class="st5" d="M597.93,968.51c-15.26,0-29.4-5.92-42.02-17.57c-10.7-9.86-17.87-22.63-21.37-37.94
		c-3.95-1.5-7.63-3.35-11.03-5.56c-7.3-4.78-13.57-10.29-18.83-16.57H292.16v86.31h330.11c-3.02-3.02-5.61-6.7-7.61-10.96
		C608.98,967.75,603.37,968.51,597.93,968.51z"/>
	<linearGradient id="SVGID_7_" gradientUnits="userSpaceOnUse" x1="365.4983" y1="360.8027" x2="1185.6266" y2="1180.9309">
		<stop  offset="0" style="stop-color:#702FFF"/>
		<stop  offset="1" style="stop-color:#000000"/>
	</linearGradient>
	<path class="st6" d="M881.69,955.39c20.7,7.42,39.08,3.35,55.12-11.43c9.98-9.22,15.9-20.85,18.75-34.04
		c0.59-2.78,1.71-4.37,4.54-5.37c3.61-1.28,7.15-2.97,10.34-5.06c4.06-2.64,7.73-5.51,10.98-8.6c14.9-14.07,21.89-32.52,23.08-53.91
		c0.45-8.08-0.71-16.23-1.14-24.15c2.8-2.69,6.18-5.18,8.65-8.37c2.52-3.23,4.8-6.54,6.85-9.91c11.39-18.78,15.47-39.72,13.64-62.13
		c-0.64-7.94-2.07-15.55-4.37-22.84c-4.02-12.81-10.67-24.58-20.2-35.06c-0.67-0.76-1-2.52-0.59-3.42
		c5.4-12.03,5.54-24.39,1.95-36.77c-2.23-7.65-5.25-14.74-9.2-21.06c-6.77-11.03-16.35-19.78-29.45-25.43
		c-4.47-1.95-9.91-2.54-14.83-2.26c-3.4,0.19-4.33-0.43-5.51-3.35c-10.53-25.93-28.62-41.83-57.66-43.12
		c-1.05-0.05-2.47-0.62-3.02-1.43c-3.21-4.71-7.89-8.34-13.36-10.74c-11.39-5.09-26.12-4.78-37.77,2.4
		c-17.23,10.65-24.27,26.95-24.55,46.56c-0.17,10.2,2.73,19.8,8.2,29.07c-48.09,0.09-95.7,0.19-143.88,0.31
		c7.44-12.95,9.7-26.24,7.04-40.12c-3.28-17.26-12.17-30.59-28.67-37.84c-16.12-7.08-35.68-2.69-45.33,10.08
		c-1.35,1.78-2.66,2.42-4.85,2.5c-20.8,0.74-36.77,10.34-48.25,27.33c-4.04,5.99-6.89,12.79-10.39,19.42
		c-10.22-2.21-19.47,1.38-27.91,7.39c-4.02,2.85-7.99,6.04-11.24,9.7c-12.12,13.6-19.4,29.28-19.51,47.85
		c-0.07,7.92,1.28,15.47,5.06,22.25c-2.42,2.97-4.78,5.54-6.77,8.39c-20.66,29.19-24.51,60.99-13.72,94.6
		c4.54,14.17,11.22,27.38,23.91,36.44c0.57,0.4,0.86,1.74,0.74,2.54c-2.59,15.16-2.23,30.04,2.69,44.81
		c7.15,21.51,20.23,37.29,41.79,45.47c1.21,0.48,2.4,1.95,2.9,3.23c2.9,7.2,4.64,15.05,8.49,21.68
		c10.7,18.37,26.76,28.86,48.49,28.5c6.77-0.1,13.55-2.4,20.61-3.76c0.45,1.24,1.05,3.11,1.81,4.9c3.28,7.77,8.15,14.05,16.73,16.21
		c11.36,2.85,20.56-1.4,28-9.72c7.51-8.37,10.22-18.87,11.79-29.66c1.14-7.82,1.76-15.69,2.61-23.65
		c44.47-0.1,88.83-0.19,133.13-0.29c1.07,8.82,1.81,17.47,3.21,26c1.71,10.39,4.85,20.28,12.31,28.21
		c7.13,7.58,17.4,11.15,26.57,8.87c7.13-1.74,13.57-7.01,17.38-16.64c0.71-1.83,1.4-3.66,2.12-5.59
		C880.07,954.77,880.88,955.1,881.69,955.39z M652.17,614.67c1.57,3.23,3.54,6.3,4.85,9.63c2.04,5.09-0.07,9.18-5.51,9.84
		c-4.49,0.52-9.13-0.05-13.69-0.29c-5.4-0.26-10.93-1.64-16.14-0.86c-8.91,1.35-14.17,7.8-15.74,17.49
		c3.42-5.25,7.32-9.41,13.41-10.36c2.42-0.38,5.04-0.62,7.37-0.05c22.49,5.49,32.26,13.19,36.56,37.72
		c3.4,19.4-2.69,35.44-15.38,50.06c-10.15,11.69-22.39,18.61-37.44,20.99c-6.63,1.07-13.05,0.26-19.8-2.85
		c10.55,11.58,23.2,13.76,36.2,6.56c3.9-2.16,7.53-4.82,11.29-7.23c2.09-1.35,4.16-2.76,6.35-3.95c9.2-5.06,15.52-2.73,18.68,7.3
		c1.14,3.61,1.54,7.58,1.54,11.39c0.05,13.29,0.02,26.57-0.5,39.84c-0.19,4.49-1.52,9.06-3.07,13.31c-0.59,1.66-3.07,2.99-4.97,3.78
		c-1.76,0.74-3.92,0.67-5.89,0.71c-16.04,0.26-31.04,20.13-26.88,35.63c0.12,0.43,0.43,0.81,1.07,2.04
		c0.55-8.18,3.02-14.71,8.32-19.94c5.42-5.35,11.81-8.68,19.66-8.18c4.47,0.26,7.68,2.28,9.22,6.8c3.09,8.96,3.68,18.23,3.42,27.6
		c-0.48,16.97-0.67,33.97-1.71,50.91c-0.64,10.51-2.14,21.01-4.28,31.3c-0.86,4.16-3.8,8.34-6.85,11.53
		c-3.35,3.52-6.49,2.66-7.82-2.02c-2.21-7.84-3.8-15.9-5.23-23.96c-1.14-6.47-1.74-13.05-2.4-19.61c-0.19-2.07-0.88-2.9-3.02-3.35
		c-4.61-0.93-9.25-2.02-13.69-3.57c-9.84-3.45-16.33-10.48-19.02-20.44c-2.92-10.79-4.85-21.82-7.73-32.64
		c-1.69-6.3-3.95-12.55-6.7-18.47c-2.69-5.75-6.73-7.44-12.36-6.25c10.96,5.94,11.79,17.04,14.45,27.07
		c1.59,5.99,2.64,12.15,3.68,18.25c0.88,5.16,0.43,9.65-4.9,12.86c-4.97,2.99-8.01,13.43-7.25,22.49c0.57-1.4,0.88-2.21,1.24-2.99
		c0.95-2.16,1.74-4.42,2.92-6.44c1.97-3.33,4.18-7.11,8.46-7.11c4.45-0.02,5.63,4.28,7.2,7.61c2.99,6.47,7.32,11.34,14.4,13.64
		c2.85,0.93,5.59,2.78,7.84,4.8c4.87,4.35,4.8,10.39,0.26,15.12c-9.32,9.75-25.58,11.55-37.46,4.16
		c-15.09-9.37-23.63-31.19-19.71-48.94c1.88-8.56,3.26-17.33,3.95-26.05c0.45-5.59-2.19-10.34-8.25-12.46
		c3.04,10.58,2.73,20.92-0.64,31.14c-0.62,1.85-1.55,3.68-2.69,5.3c-2.57,3.66-5.61,4.35-9.75,2.64
		c-12.41-5.21-20.42-14.67-25.74-26.67c-10.86-24.55-4.9-54.62,14.38-72.47c5.66-5.23,12.15-9.03,19.85-10.46
		c4.61-0.83,6.44,0.24,6.58,4.94c0.12,4.3,0.02,8.87-1.24,12.91c-2.71,8.6-5.85,17.11-9.53,25.34c-2.64,5.94-6.99,10.82-14.17,13.98
		c11.08-1,17.8-6.7,22.7-14.97c4.23-7.15,6.56-15,7.77-23.18c0.17-1,0.28-1.97,0.48-2.95c1.54-8.79,6.68-10.72,13.5-4.9
		c3.97,3.38,7.58,7.18,11.41,10.72c1.36,1.28,2.83,2.45,4.35,3.52c10.74,7.58,19.51,6.37,27.93-3.87c1.76-2.14,3.33-4.44,4.54-7.15
		c-1.54,0.95-3.02,1.95-4.61,2.8c-9.84,5.23-19.49,4.61-28.48-1.76c-4.66-3.26-8.98-7.08-12.98-11.12
		c-10.24-10.39-22.2-14.74-36.56-11.22c-4.68,1.16-9.2,0.43-12.91-2.02c-6.8-4.52-13.52-9.27-19.51-14.76
		c-5.99-5.51-6.2-13.24-5.21-20.89c0.33-2.52,0.88-5.02,1.45-8.2c-7.42,10.79-8.87,26-2.54,34.23c3.28,4.28,8.25,7.32,12.74,10.58
		c2.88,2.09,6.39,3.3,9.37,5.3c3.4,2.26,3.78,4.35,1.26,7.44c-3.52,4.33-7.06,8.72-11.12,12.5c-5.97,5.54-11.96,4.87-16.97-1.52
		c-11.84-15.14-16.71-32.61-16.28-51.56c0.5-20.77,7.15-39.24,22.22-54.1c5.63-5.56,10.36-4.68,13.55,2.54
		c2.73,6.25,4.66,12.88,7.73,18.92c5.11,10.08,12.65,17.73,24.46,19.21c4.75,0.57,9.65-0.17,14.48-0.93
		c-14.07-0.5-22.34-8.79-28.24-20.25c-4.04-7.87-7.32-16.07-7.87-25.05c-0.48-7.54,1.26-9.25,8.84-9.41h1.47
		c0.1-0.38,0.21-0.76,0.31-1.16c-4.09-1.05-8.15-2.47-12.31-3.04c-3.66-0.52-7.44-0.21-11.17-0.02c-7.06,0.36-10.46-2.5-11.98-9.37
		c-3.66-16.66,8.6-41.93,26.48-50.2c8.39-3.9,17.21,1.14,19.13,10.98c1.05,5.25,1.62,10.6,3.02,15.74
		c3.85,14.19,11.03,26.12,23.63,34.56c17.33,11.6,22.39,29.21,22.91,48.85c0.02,0.74,0,1.47,0,2.23c2.61-7.2,2.71-14.71,1.74-22.2
		c-1.85-14.02-7.51-26.19-18.04-35.87c-0.83-0.76-1.55-1.62-2.31-2.45c-4.63-5.13-4.97-9.7-0.5-14.95
		c7.44-8.7,11.2-18.94,13.24-29.97c0.55-2.99,0.78-6.04,0.86-9.13c-2.45,8.32-5.82,16.23-11.29,22.89
		c-3.23,3.97-7.2,7.51-11.39,10.48c-3.3,2.35-4.87,1.4-6.49-2.35c-8.96-20.75-7.92-40.79,5.21-59.45
		c7.8-11.1,18.59-17.28,32.64-16.9c7.23,0.21,12.22,3.35,15.43,9.79c5.71,11.43,6.39,23.27,3.19,35.61
		c7.8-10.53,8.7-30.71,0.71-41.74c-5.44-7.54-2.92-17.9,9.65-19.37c6.58-0.76,12.24,1.28,17.26,5.44
		c14.88,12.41,14.19,40.62-1.33,52.22c-1.57,1.16-3.3,2.14-5.61,3.61C649.44,608.73,650.75,611.75,652.17,614.67z M673.14,643.62
		c5.56-13.24,5.59-13.22,3.19-26.55c49.16-0.12,98.26-0.21,147.09-0.33c-0.5,5.42-1,10.65-1.54,16.54h-3.16
		c-28.95,0.07-57.9,0.1-86.85,0.21c-5.21,0-10.43-0.02-15.57,0.57c-2.35,0.26-5.04,1.47-6.68,3.14
		c-9.18,9.22-18.09,18.73-27.05,28.12c-3.47-7.2-6.39-13.26-9.25-19.37C672.97,645.29,672.85,644.29,673.14,643.62z M677.13,731.45
		c-0.76-1.5-2.14-2.69-3.35-4.14c4.97-8.03,8.7-16.57,9.79-25.91c0.76-6.37,0.4-12.88,0.81-19.3c0.1-1.78,0.67-3.97,1.83-5.18
		c9.77-10.08,19.73-20.01,29.71-29.88c0.93-0.93,2.52-1.69,3.83-1.69c35.44-0.17,70.88-0.24,106.32-0.29c0.31,0,0.64,0.14,0.83,0.17
		c-2.12,4.94-4.49,9.72-6.2,14.71c-1.66,4.87-2.64,9.98-3.99,15.21c-13.55,0.02-27.07,0.05-40.62,0.1c-6.96,0-13.93-0.1-20.87,0.09
		c-2.8,0.1-4.33-0.67-5.73-3.3c-4.07-7.58-12.62-10.96-21.01-8.79c-7.94,2.07-13.72,9.6-13.72,17.9c0.02,8.7,5.47,15.83,13.83,18.14
		c8.51,2.35,17.35-1.74,21.63-9.82c0.57-1.07,2.02-2.33,3.07-2.35c20.75-0.17,41.5-0.19,62.61-0.24c0.33,4.9,0.64,9.65,0.97,14.76
		c-8.06,0.02-16-0.1-23.91,0.07c-14.4,0.31-9.53-1.85-19.63,8.11c-7.51,7.42-14.97,14.93-22.32,22.51
		c-1.81,1.88-3.64,2.52-6.18,2.52c-20.25-0.05-40.53-0.05-60.8,0.14C680.88,735.02,678.63,734.45,677.13,731.45z M684.69,901.78
		c0-6.92-0.02-13.69-0.05-20.8c5.13-0.02,9.96-0.02,14.78-0.02c11.43-0.05,22.89-0.12,34.32-0.05c3.07,0.02,5.44-0.93,7.61-3.11
		c10.1-10.29,20.35-20.47,30.45-30.76c1.81-1.81,3.64-2.57,6.2-2.57c12.67,0.1,25.34,0,38.15-0.02c0.02,7.27,0.05,14.29,0.05,21.84
		c-3.42,0-6.61,0.21-9.75-0.12c-0.93-0.1-1.85-1.69-2.47-2.78c-3.68-6.51-11.2-10.67-17.97-9.82c-8.53,1.07-14.57,6.3-16.59,14.36
		c-2.26,8.98,2.64,18.37,11.39,21.75c8.6,3.33,18.92-0.31,22.98-8.53c1.26-2.54,2.59-3.49,5.32-3.21c2.45,0.24,4.94,0.05,7.84,0.02
		c0,7.89,0.02,15.55,0.05,23.53C773.09,901.59,728.9,901.69,684.69,901.78z M758.71,793.78c8.03,1.95,16.35-1.55,20.47-8.6
		c0.62-1.07,1.17-2.19,1.78-3.38c11.84-0.02,23.72-0.05,35.42-0.07c0.02,5.16,0.12,10.1,0.02,15.05c-0.14,7.56,0.86,14.9,3.92,21.82
		c1.35,3.04,1.59,5.78-0.05,8.77c-0.86,1.59-1.24,3.47-1.92,5.51c-7.2,0-14.38,0.02-21.58,0.05c-7.73,0.02-15.43,0.12-23.15,0.02
		c-2.95-0.02-5.13,0.9-7.23,3.04c-10.17,10.39-20.44,20.7-30.81,30.9c-1.19,1.16-3.11,2.21-4.71,2.23
		c-14.69,0.19-29.36,0.14-44.04,0.14c-0.48,0-0.95-0.1-1.71-0.17c0.71-14.48,0.76-28.81-4.54-43.02
		c10.34-0.02,20.23-0.05,30.14-0.07c0.62,0,1.26,0.14,1.85,0.02c4.97-1.02,8.18,0.45,10.6,5.35c2.83,5.75,11.01,8.44,18.28,7.08
		c7.04-1.33,13.22-7.42,14.52-14.36c1.88-9.82-3.4-18.92-13.05-21.75c-9.55-2.83-18.83,2.09-22.2,10.22
		c-0.33,0.83-1.69,1.76-2.59,1.78c-11.65,0.14-23.29,0.12-34.66,0.14c2.31-22.63,0.62-45.04,1.47-67.84
		c2.31-0.02,5.13-0.02,7.96-0.02c18.63-0.05,37.29-0.14,55.95-0.07c3.26,0.02,5.68-1.05,7.92-3.33
		c9.15-9.32,18.35-18.59,27.67-27.72c1.24-1.21,3.35-2.09,5.09-2.12c9.32-0.24,18.66-0.07,27.98-0.21c2.12-0.05,3.04,0.64,3.85,2.52
		c1.64,3.85,3.61,7.56,5.56,11.5c-5.23,5.61-8.91,12.24-9.86,19.94c-0.88,7.32-1,14.76-1.5,22.58c-3.28,0-7.11,0-10.93,0.02
		c-5.35,0-10.7-0.19-16.04,0.1c-4.59,0.21-7.94-0.17-10.67-5.13c-3.9-7.08-13.26-9.37-21.06-6.61c-7.7,2.71-12.74,10.29-12.29,18.54
		C745.02,784.98,750.62,791.8,758.71,793.78z M880.62,913.6c1.93-1.5,4.11-2.95,6.42-3.66c7.39-2.31,11.74-7.56,14.76-14.29
		c1.45-3.16,2.66-6.94,6.77-7.13c3.92-0.19,6.13,3.04,7.91,6.04c1.81,3.02,3.16,6.35,4.64,9.41c2.02-5.89-2.21-18.33-7.87-21.92
		c-3.26-2.07-5.02-4.97-4.37-8.41c2.21-12.05,4.56-24.1,7.49-35.99c1.33-5.42,4.66-10.1,9.96-13.24c-5.8-0.71-10.53,1.93-12.91,8.58
		c-2.88,8.03-4.83,16.4-6.99,24.65c-1.9,7.32-3.45,14.74-5.28,22.08c-3.4,13.76-12.55,21.54-26.05,24.7
		c-3.23,0.76-7.53,0.64-9.37,2.71c-1.85,2.07-1.26,6.35-1.76,9.65c-1.47,9.94-2.9,19.9-4.49,29.81c-0.05,0.26-0.07,0.5-0.12,0.76
		c-0.31,2.07-1.12,4.09-2,5.99c-1.93,4.09-4.11,4.87-7.56,1.88c-2.52-2.19-4.64-5.23-5.97-8.3c-4.07-9.53-4.83-19.78-5.32-29.95
		c-0.93-19.13-1.88-38.27-2.09-57.4c-0.1-7.99,1.09-16.12,2.71-23.96c1.52-7.3,6.18-9.72,13.64-8.75c2.31,0.31,4.56,0.95,6.7,1.88
		c8.46,3.57,15.14,11.48,16.81,20.61c0.29,1.55,0.5,3.11,0.88,5.42c2.09-5.18,1.95-9.7,0.59-14.14c-2.54-8.39-7.46-15.26-14.93-19.8
		c-1.05-0.64-2.16-1.19-3.35-1.64c-2.47-1-5.18-1.59-7.77-1.76c-11.46-0.86-11.27-1.31-14.17-12.34c-0.9-3.42-0.71-7.15-0.78-10.74
		c-0.19-10.82-0.38-21.63-0.26-32.42c0.05-4.68,0.19-9.53,1.5-13.95c2.73-9.48,9.25-12.08,17.78-7.34c1.26,0.69,2.5,1.43,3.71,2.19
		c4.16,2.57,8.18,5.4,12.36,7.94c12.62,7.68,24.01,7.15,34.51-1.5c0.93-0.76,1.74-1.64,3.3-3.14c-17.87,5.66-33.32,1.21-46.45-9.13
		c-1.26-1-2.52-2.02-3.73-3.09c-11.96-10.29-21.25-23.01-22.63-39.89c-1.12-13.6,0.52-27.03,8.6-38.53
		c3.8-5.42,8.6-9.13,14.02-11.65c5.66-2.66,11.98-3.99,18.54-4.63c6.3-0.62,10.65,2.71,16.45,10.2
		c-1.78-11.84-12.34-19.3-23.51-17.54c-3.8,0.59-7.65,1.16-11.48,1.52c-3.18,0.31-6.39,0.48-9.56,0.38
		c-6.61-0.19-8.7-4.49-6.13-10.72c1.4-3.45,3.4-6.63,5.04-9.98c1.19-2.42,2.23-4.92,3.49-7.73c-8.18-3.76-13.15-9.96-15.97-18.02
		c-5.44-15.47,0.4-33.63,13.14-40.72c3.26-1.81,6.61-2.69,9.98-2.69c2.78,0,5.54,0.59,8.34,1.76c6.8,2.8,9.18,10.27,4.97,16.33
		c-9.86,14.26-6.49,28.48-0.33,42.76c-1.88-7.94-2.21-15.95-0.4-23.86c0.93-4.09,2.45-8.08,4.23-11.86
		c2.76-5.87,7.56-8.91,14.17-9.25c15.47-0.76,26.98,6.27,35.04,18.75c11.93,18.47,12.53,37.96,3.78,57.95
		c-1.47,3.33-3.57,3.38-6.27,1.95c-7.01-3.66-11.67-9.65-15.31-16.35c-2.99-5.51-5.25-11.43-7.84-17.19c1,9.13,2.21,18.28,6.8,26.5
		c2.59,4.64,5.49,9.08,8.49,13.43c3.38,4.9,3.4,8.75-0.57,13.53c-4.18,5.09-8.98,9.72-12.53,15.21
		c-8.39,13.05-11.05,32.47-6.85,46.16c0.57-5.42,1-10.51,1.69-15.57c2.07-15.07,9.01-27.29,21.68-35.89
		c16.81-11.46,23.22-28.4,25.86-47.54c0.38-2.66,1.07-5.4,2.26-7.8c3.28-6.68,10.7-9.03,17.4-5.85c3.28,1.57,6.37,3.64,9.2,6.16
		c11.84,10.34,19.35,27.6,17.49,42.59c-1,7.89-4.73,11.03-12.81,10.51c-7.27-0.48-14.4-0.1-21.18,2.95
		c-0.5,0.24-0.97,0.55-2.38,1.35c1.97,0.1,2.88,0.14,3.8,0.19c5.73,0.24,8.27,2.61,7.7,8.46c-1.07,11.03-4.3,21.27-10.29,30.26
		c-1.57,2.38-3.35,4.68-5.32,6.87c-5.42,5.99-12.41,8.89-20.56,8.82c9.7,2.76,18.97,2.28,27.38-3.9c4.47-3.28,7.82-7.3,10.48-11.79
		c2.59-4.35,4.54-9.15,6.25-14.07c1-2.92,1.85-5.99,3.3-8.68c3.07-5.66,7.39-6.28,12.12-1.93c7.51,6.92,13.22,15.21,16.85,24.67
		c0.12,0.24,0.21,0.5,0.31,0.76c10.05,26.98,8.15,52.96-7.53,77.42c-1.97,3.09-3.9,5.35-5.87,6.8c-3.61,2.73-7.32,2.71-11.48,0
		c-1.76-1.12-3.59-2.73-5.54-4.8c-2.66-2.78-5.09-5.8-7.46-8.82c-2.95-3.71-2.61-5.94,1.52-8.49c3.71-2.26,7.63-4.16,11.41-6.3
		c9.06-5.09,14.43-12.48,13.93-23.25c-0.36-7.73-3.04-14.74-6.2-20.32c0.36,5.42,1.19,11.88,0.95,18.3
		c-0.1,3.14-1.55,6.73-3.52,9.17c-6.32,7.82-14.05,14.19-23.53,17.76c-3.28,1.21-7.39,1.4-10.86,0.71
		c-14.1-2.83-25.67,1.33-35.58,11.34c-3.33,3.35-6.68,6.73-10.46,9.56c-12.74,9.53-22.77,9.67-35.96,0.95
		c4.42,14.5,20.09,20.09,32.09,11.2c4.28-3.16,7.96-7.11,11.96-10.62c2.33-2.04,4.56-4.28,7.2-5.85c4.73-2.8,8.53-1.21,9.94,4.11
		c1.28,4.92,1.57,10.13,3.23,14.88c1.97,5.7,4.42,11.36,7.56,16.5c1.4,2.31,3.07,4.3,4.94,5.97c4.02,3.57,9.1,5.68,15.31,6.27
		c-7.3-4.14-11.96-9.91-15.31-16.4c-2.47-4.71-4.25-9.82-5.85-14.97c-1.97-6.32-2.8-13.1-3.23-19.73c-0.36-5.75,1.69-6.89,7.39-5.7
		c11.58,2.4,19.82,9.56,26.55,18.54c0.4,0.52,0.76,1.02,1.14,1.54c15.36,21.49,14.83,53.41-1.02,74.52
		c-4.87,6.49-10.93,11.53-18.47,14.62c-2.57,1.05-4.68,1.24-6.51,0.5c-1.59-0.64-2.95-2-4.16-4.11c-3.73-6.44-4.61-13.64-4.85-20.85
		c-0.17-4.42,0.55-8.84,0.86-13.19c-3.35,0.55-6.11,3.09-6.49,7.77c-0.43,5.02-0.14,10.13,0.38,15.14
		c0.43,4.06,1.69,8.01,2.57,12.03c4.09,18.59-0.24,34.77-14.21,47.9c-11.34,10.65-29.14,10.74-40.93,0.59
		C874.11,925.65,874.16,918.69,880.62,913.6z"/>
</g>
<radialGradient id="SVGID_8_" cx="749.5789" cy="1229" r="387.1364" gradientTransform="matrix(1 0 0 0.0541 0 1013.9618)" gradientUnits="userSpaceOnUse">
	<stop  offset="0" style="stop-color:#682DEA"/>
	<stop  offset="1" style="stop-color:#FFFFFF;stop-opacity:0"/>
</radialGradient>
<ellipse class="st7" cx="749.58" cy="1080.5" rx="524.5" ry="8.5"/>
</svg>
